<svg width="44" height="27" viewBox="0 0 44 27" fill="none" xmlns="http://www.w3.org/2000/svg">
<path fill-rule="evenodd" clip-rule="evenodd" d="M0.125 13.5001C0.125 13.1271 0.28962 12.7694 0.582646 12.5057C0.875671 12.242 1.2731 12.0938 1.6875 12.0938H38.5406L28.7062 3.24569C28.4129 2.98164 28.248 2.6235 28.248 2.25007C28.248 1.87664 28.4129 1.5185 28.7062 1.25444C28.9996 0.990386 29.3976 0.842041 29.8125 0.842041C30.2274 0.842041 30.6254 0.990386 30.9188 1.25444L43.4188 12.5044C43.5643 12.6351 43.6797 12.7903 43.7585 12.9611C43.8372 13.1319 43.8778 13.3151 43.8778 13.5001C43.8778 13.685 43.8372 13.8682 43.7585 14.039C43.6797 14.2099 43.5643 14.3651 43.4188 14.4957L30.9188 25.7457C30.6254 26.0097 30.2274 26.1581 29.8125 26.1581C29.3976 26.1581 28.9996 26.0097 28.7062 25.7457C28.4129 25.4816 28.248 25.1235 28.248 24.7501C28.248 24.3766 28.4129 24.0185 28.7062 23.7544L38.5406 14.9063H1.6875C1.2731 14.9063 0.875671 14.7582 0.582646 14.4944C0.28962 14.2307 0.125 13.873 0.125 13.5001Z" fill="white"/>
</svg>
